<svg width="32" height="32" viewBox="0 0 32 32" fill="none" xmlns="http://www.w3.org/2000/svg">
  <rect width="32" height="32" rx="6" fill="#1a365d"/>
  <path d="M8 16C8 11.5817 11.5817 8 16 8C18.1217 8 20.0425 8.85833 21.4142 10.2422L19.2426 12.4142C18.4142 11.5858 17.2426 11 16 11C13.2386 11 11 13.2386 11 16C11 18.7614 13.2386 21 16 21C17.2426 21 18.4142 20.4142 19.2426 19.5858L21.4142 21.7578C20.0425 23.1417 18.1217 24 16 24C11.5817 24 8 20.4183 8 16ZM16 13C16.5523 13 17 13.4477 17 14V16H19C19.5523 16 20 16.4477 20 17C20 17.5523 19.5523 18 19 18H17V20C17 20.5523 16.5523 21 16 21C15.4477 21 15 20.5523 15 20V18H13C12.4477 18 12 17.5523 12 17C12 16.4477 12.4477 16 13 16H15V14C15 13.4477 15.4477 13 16 13Z" fill="#60a5fa"/>
</svg>
